<svg xmlns="http://www.w3.org/2000/svg" viewBox="0 0 1576 606.51"><defs><style>.cls-1{fill:#0d2968;}</style></defs><title>资源 4</title><g id="图层_2" data-name="图层 2"><g id="图层_1-2" data-name="图层 1"><path class="cls-1" d="M1571.32,557.34a46.84,46.84,0,0,1-46.84,46.83H1369.93c-165.28,0-299.75-135.51-299.75-302.08S1204.65,0,1369.93,0h159.23A46.84,46.84,0,0,1,1576,46.84v74.93H1400.37c-98.14,0-178,80.89-178,180.32s79.83,180.31,178,180.31h171Z"/><path class="cls-1" d="M501.14,559.68a46.83,46.83,0,0,1-46.84,46.83H299.74C134.47,606.51,0,471,0,304.43S134.47,2.34,299.74,2.34H459a46.84,46.84,0,0,1,46.84,46.84v74.93H330.19c-98.14,0-178,80.89-178,180.32s79.84,180.31,178,180.31h171Z"/><path class="cls-1" d="M926.16,236.52H731.89c-27.75-7.1-48.1-29.6-48.1-56.2,0-32.29,29.94-58.55,66.74-58.55h322V46.84A46.84,46.84,0,0,0,1025.69,0H706C602.09,0,517.53,80.89,517.53,180.32S602.09,360.63,706,360.63H900.31c27.76,7.1,48.1,29.6,48.1,56.2,0,32.28-29.94,58.55-66.74,58.55H587.78v74.93a46.84,46.84,0,0,0,46.84,46.84H926.16c103.95,0,188.51-80.89,188.51-180.32S1030.11,236.52,926.16,236.52Z"/></g></g></svg>